<svg width="16" height="16" viewBox="0 0 16 16" fill="none" xmlns="http://www.w3.org/2000/svg">
  <path d="M9.0625 14.8064C9.0625 15.0877 8.95938 15.3314 8.75313 15.5377C8.54688 15.7439 8.29688 15.8471 8.00313 15.8471C7.71563 15.8471 7.46875 15.7439 7.2625 15.5377C7.05625 15.3314 6.95312 15.0877 6.95312 14.8064V1.20332C6.95312 0.91582 7.05625 0.668945 7.2625 0.462695C7.46875 0.256445 7.71563 0.15332 8.00313 0.15332C8.29688 0.15332 8.54688 0.256445 8.75313 0.462695C8.95938 0.668945 9.0625 0.91582 9.0625 1.20332V14.8064ZM1.20625 9.0502C0.91875 9.0502 0.671875 8.9502 0.465625 8.7502C0.259375 8.54395 0.15625 8.29395 0.15625 8.0002C0.15625 7.7127 0.259375 7.46582 0.465625 7.25957C0.671875 7.04707 0.91875 6.94082 1.20625 6.94082H14.8C15.0875 6.94082 15.3344 7.04707 15.5406 7.25957C15.7469 7.46582 15.85 7.7127C15.85 8.0002C15.85 8.29395 15.7469 8.54395 15.5406 8.7502C15.3344 8.9502 15.0875 9.0502 14.8 9.0502H1.20625Z" fill="white"/>
</svg>
