<svg width="16" height="16" viewBox="0 0 16 16" fill="none" xmlns="http://www.w3.org/2000/svg">
  <path d="M14.065 0.366519C14.2097 0.221782 14.3742 0.129677 14.5584 0.0902035C14.7492 0.0441509 14.9367 0.0441509 15.1209 0.0902035C15.3117 0.136256 15.4827 0.231651 15.634 0.376388C15.7722 0.514546 15.8643 0.679019 15.9104 0.869809C15.963 1.0606 15.963 1.25139 15.9104 1.44218C15.8643 1.62639 15.7722 1.79086 15.634 1.9356L1.93668 15.633C1.79852 15.7711 1.63405 15.8632 1.44326 15.9093C1.25905 15.9553 1.07155 15.9553 0.880757 15.9093C0.689967 15.8632 0.518914 15.7678 0.367599 15.6231C0.222862 15.4849 0.127467 15.3205 0.0814145 15.1297C0.0353618 14.9389 0.0353618 14.7481 0.0814145 14.5573C0.134046 14.3665 0.229441 14.2053 0.367599 14.0738L14.065 0.366519ZM15.634 14.0639C15.7722 14.2086 15.8643 14.3764 15.9104 14.5672C15.9564 14.7514 15.9564 14.9389 15.9104 15.1297C15.8643 15.3205 15.7722 15.4849 15.634 15.6231C15.4893 15.7678 15.3215 15.8632 15.1308 15.9093C14.94 15.9553 14.7492 15.9553 14.5584 15.9093C14.3676 15.8632 14.2031 15.7711 14.065 15.633L0.367599 1.92573C0.229441 1.79415 0.137336 1.63297 0.0912829 1.44218C0.0452303 1.25139 0.0452303 1.0606 0.0912829 0.869809C0.137336 0.679019 0.229441 0.514546 0.367599 0.376388C0.512336 0.231651 0.680099 0.136256 0.870888 0.0902035C1.06168 0.0441509 1.25247 0.0441509 1.44326 0.0902035C1.63405 0.136256 1.79852 0.228361 1.93668 0.366519L15.634 14.0639Z" fill="white"/>
</svg>
